<svg width="233" height="38" viewBox="0 0 233 38" fill="none" xmlns="http://www.w3.org/2000/svg">
<path d="M18.0595 37.7422C14.7683 37.7422 11.7682 37.0029 9.14267 35.5451C6.50432 34.0803 4.40256 31.9482 2.89551 29.2081C1.39362 26.4793 0.631969 23.2533 0.631969 19.6195C0.631969 15.9867 1.39362 12.7606 2.89564 10.0311C4.40309 7.29066 6.50498 5.15857 9.14267 3.69389C11.7681 2.23605 14.7682 1.49694 18.0595 1.49694C20.2838 1.49694 22.3062 1.76805 24.0704 2.30292C25.8196 2.83417 27.5826 3.60665 29.3106 4.59891C30.2103 5.09719 30.6904 5.9336 30.6904 7.01325C30.6904 7.67087 30.4532 8.25572 29.9853 8.75186C29.5095 9.25617 28.8862 9.51187 28.1323 9.51187C27.7129 9.51187 27.3259 9.42315 26.9823 9.24839C25.6085 8.52027 24.2611 7.96343 22.9681 7.58858C21.6886 7.21762 20.1824 7.02946 18.4912 7.02946C15.8698 7.02946 13.6146 7.58081 11.7879 8.66823C9.97128 9.74975 8.58653 11.247 7.67234 13.118C6.74574 15.0129 6.27597 17.2003 6.27597 19.6195C6.27597 22.0388 6.74574 24.2261 7.67234 26.121C8.58692 27.9931 9.97154 29.4902 11.7878 30.5708C13.6134 31.6583 15.8687 32.2097 18.4912 32.2097C20.1821 32.2097 21.6885 32.0215 22.9681 31.6505C24.2644 31.2748 25.6116 30.718 26.9725 29.9958C27.3287 29.8157 27.715 29.7273 28.1323 29.7273C28.8801 29.7273 29.5 29.9713 29.9751 30.4523C30.45 30.9354 30.6904 31.5317 30.6904 32.2259C30.6904 33.3055 30.2103 34.1421 29.3021 34.6452C27.5795 35.6342 25.8165 36.4067 24.0705 36.9362C22.3063 37.4711 20.2839 37.7422 18.0595 37.7422Z" fill="#F7F3EF"/>
<path d="M45.4478 15.9855C44.2105 15.9855 43.0226 16.2658 41.9175 16.8189C40.8381 17.3597 39.936 18.2486 39.2366 19.4608C38.531 20.6845 38.173 22.2611 38.173 24.1463C38.173 26.0644 38.5308 27.6572 39.2366 28.8804C39.9374 30.0957 40.8414 30.9937 41.9234 31.5496C43.0262 32.1168 44.2119 32.4044 45.4478 32.4044C46.6521 32.4044 47.8215 32.1168 48.9241 31.5497C50.0076 30.993 50.9206 30.0934 51.6381 28.8753C52.3577 27.6532 52.7226 26.062 52.7226 24.1463C52.7226 22.2635 52.3576 20.6888 51.638 19.4656C50.9221 18.2509 50.011 17.3603 48.9301 16.8188C47.8251 16.2658 46.6534 15.9855 45.4478 15.9855ZM45.4478 37.7423C42.8844 37.7423 40.5993 37.1733 38.6562 36.0511C36.7013 34.9224 35.1724 33.3024 34.1123 31.2359C33.0618 29.1888 32.5292 26.8197 32.5292 24.1948C32.5292 21.5709 33.0618 19.2019 34.1123 17.154C35.1731 15.087 36.7018 13.467 38.6563 12.3388C40.5993 11.2167 42.8844 10.6477 45.4478 10.6477C47.9787 10.6477 50.2477 11.2167 52.1916 12.3388C54.1442 13.4665 55.6805 15.0851 56.7574 17.1499C57.8253 19.1997 58.3665 21.57 58.3665 24.1948C58.3665 26.8207 57.8252 29.1908 56.7575 31.2395C55.681 33.3043 54.1449 34.923 52.1917 36.0511C50.2477 37.1733 47.9787 37.7423 45.4478 37.7423" fill="#F7F3EF"/>
<path d="M73.5071 26.1094C71.2084 26.1094 69.4806 26.408 68.3714 26.9969C67.3702 27.5285 66.9039 28.262 66.9039 29.3056C66.9039 30.2906 67.2187 31.056 67.8664 31.6454C68.5252 32.2461 69.6966 32.5505 71.3487 32.5505C72.6451 32.5505 73.9169 32.2233 75.1287 31.5783C76.2874 30.9617 77.2844 30.1962 78.0959 29.3007V26.1094H73.5071ZM69.7179 37.7423C68.2208 37.7423 66.8125 37.4259 65.5319 36.8022C64.2286 36.1673 63.1799 35.228 62.4154 34.0106C61.6487 32.791 61.26 31.3718 61.26 29.7922C61.26 27.188 62.2898 25.0811 64.3209 23.5304C66.2966 22.0227 69.1936 21.2582 72.9315 21.2582H78.0931C78.054 19.4552 77.6028 18.1504 76.7505 17.3779C75.8367 16.5509 74.3419 16.1314 72.308 16.1314C71.1408 16.1314 70.0944 16.2252 69.1979 16.4104C68.2851 16.5987 67.2532 16.8867 66.1308 17.2663L66.108 17.2739L66.0845 17.2799C65.7763 17.3586 65.5213 17.3969 65.3051 17.3969C64.6508 17.3969 64.0789 17.1526 63.6052 16.6708C63.1315 16.191 62.8908 15.5944 62.8908 14.8984C62.8908 13.7575 63.4569 12.9113 64.5281 12.4511C67.3122 11.2545 70.1881 10.6477 73.0754 10.6477C75.3862 10.6477 77.3754 11.1363 78.988 12.1003C80.607 13.0692 81.8194 14.346 82.5918 15.8953C83.3536 17.4247 83.7399 19.1035 83.7399 20.8851V34.6596C83.7399 35.457 83.456 36.1385 82.8959 36.6849C82.3426 37.225 81.6689 37.4989 80.8938 37.4989C80.1135 37.4989 79.4448 37.2221 78.9066 36.6762C78.4157 36.1789 78.1455 35.57 78.1021 34.8644C75.8015 36.7752 72.9879 37.7423 69.7179 37.7423" fill="#F7F3EF"/>
<path d="M101.423 37.7423C99.0251 37.7423 96.7788 37.1931 94.7461 36.1102C92.7005 35.0217 91.0431 33.4352 89.8203 31.3951C88.597 29.355 87.9765 26.9325 87.9765 24.1948C87.9765 21.4572 88.597 19.0347 89.8204 16.9947C91.0425 14.9556 92.6998 13.3691 94.7462 12.2794C96.7804 11.1967 99.0266 10.6476 101.423 10.6476C103.182 10.6476 104.73 10.8809 106.023 11.3413C107.295 11.7941 108.494 12.3809 109.585 13.0854C110.408 13.629 110.84 14.4062 110.84 15.3364C110.84 15.9885 110.598 16.5865 110.12 17.1141C109.628 17.657 109.042 17.9324 108.378 17.9324C107.922 17.9324 107.466 17.8087 107.023 17.5648C106.007 17.0338 105.13 16.6479 104.418 16.4171C103.733 16.1952 102.854 16.0827 101.807 16.0827C99.2461 16.0827 97.2204 16.8285 95.7856 18.2995C94.3286 19.793 93.6205 21.7214 93.6205 24.1948C93.6205 26.6684 94.3286 28.5968 95.7856 30.09C97.2203 31.5611 99.246 32.3069 101.807 32.3069C102.854 32.3069 103.733 32.1945 104.418 31.9727C105.133 31.741 106.01 31.3549 107.023 30.8251C107.466 30.581 107.922 30.4575 108.378 30.4575C109.041 30.4575 109.627 30.7325 110.119 31.2751C110.598 31.8045 110.84 32.4023 110.84 33.0534C110.84 33.9847 110.408 34.7621 109.59 35.3013C108.494 36.0089 107.295 36.5956 106.023 37.0485C104.729 37.5088 103.181 37.7423 101.423 37.7423Z" fill="#F7F3EF"/>
<path d="M134.998 37.499C134.218 37.499 133.549 37.2221 133.011 36.6761C132.473 36.131 132.2 35.4525 132.2 34.6595V21.3231C132.2 17.7147 130.727 16.0341 127.564 16.0341C126.1 16.0341 124.774 16.4239 123.622 17.1926C122.473 17.9601 121.369 19.0002 120.337 20.2862V34.6595C120.337 35.4572 120.053 36.1387 119.493 36.6849C118.94 37.225 118.266 37.499 117.491 37.499C116.71 37.499 116.042 37.2221 115.504 36.676C114.966 36.1313 114.693 35.4526 114.693 34.6595V3.07085C114.693 2.28309 114.963 1.59933 115.496 1.0386C116.033 0.470903 116.705 0.182898 117.491 0.182898C118.272 0.182898 118.948 0.467956 119.502 1.03003C120.056 1.5921 120.337 2.2788 120.337 3.07085V14.1899C121.278 13.2991 122.275 12.5483 123.315 11.949C124.813 11.0855 126.598 10.6477 128.619 10.6477C130.493 10.6477 132.151 11.1079 133.545 12.0159C134.935 12.9221 136.014 14.1742 136.751 15.7378C137.477 17.2802 137.844 18.9955 137.844 20.8364V34.6595C137.844 35.4572 137.56 36.1387 137 36.6849C136.447 37.225 135.774 37.499 134.998 37.499Z" fill="#F7F3EF"/>
<path d="M181.141 37.499C180.209 37.499 179.436 37.1067 178.903 36.3645L166.983 20.9395L162.21 25.8249V34.6595C162.21 35.4572 161.926 36.1385 161.366 36.6849C160.813 37.225 160.139 37.499 159.364 37.499C158.584 37.499 157.915 37.2221 157.377 36.676C156.839 36.1312 156.566 35.4525 156.566 34.6595V4.62828C156.566 3.84079 156.836 3.15703 157.369 2.59617C157.907 2.02847 158.578 1.74046 159.364 1.74046C160.145 1.74046 160.821 2.02539 161.375 2.58759C161.929 3.14966 162.21 3.83623 162.21 4.62828V18.5202L177.506 2.7259C178.077 2.07202 178.783 1.74046 179.606 1.74046C180.311 1.74046 180.933 1.98625 181.453 2.47099C181.989 2.97168 182.26 3.59889 182.26 4.33625C182.26 5.1606 182.019 5.82265 181.545 6.30404L170.869 17.0907L183.224 32.8934C183.663 33.4607 183.886 34.0644 183.89 34.6905C183.927 35.4572 183.671 36.125 183.128 36.6761C182.588 37.2222 181.92 37.499 181.141 37.499Z" fill="#F7F3EF"/>
<path d="M190.206 7.37028C189.362 7.37028 188.629 7.0607 188.027 6.45011C187.425 5.83966 187.12 5.09559 187.12 4.23895V4.04436C187.12 3.18771 187.425 2.44365 188.027 1.8332C188.629 1.22261 189.362 0.913029 190.206 0.913029H190.494C191.338 0.913029 192.071 1.22261 192.673 1.8332C193.274 2.44365 193.58 3.18771 193.58 4.04436V4.23895C193.58 5.09559 193.274 5.83953 192.673 6.45011C192.071 7.0607 191.338 7.37028 190.494 7.37028H190.206ZM190.302 37.499C189.521 37.499 188.853 37.2221 188.315 36.676C187.777 36.1312 187.504 35.4526 187.504 34.6597V13.7789C187.504 12.9913 187.774 12.3076 188.306 11.7468C188.844 11.1789 189.516 10.8909 190.302 10.8909C191.113 10.8909 191.798 11.1675 192.337 11.7134C192.875 12.2607 193.148 12.9555 193.148 13.7789V34.6597C193.148 35.4571 192.864 36.1385 192.304 36.6849C191.751 37.225 191.077 37.499 190.302 37.499" fill="#F7F3EF"/>
<path d="M208.193 37.7423C203.193 37.7423 200.55 35.2962 200.55 30.6684V16.2288H197.784C197.359 16.2288 196.978 16.0701 196.684 15.77C196.39 15.4731 196.233 15.0868 196.233 14.6549C196.233 14.2952 196.347 13.7781 196.881 13.3402L203.381 6.89016C203.786 6.47832 204.213 6.26711 204.643 6.26711C205.078 6.26711 205.465 6.44066 205.762 6.76914C206.045 7.08354 206.194 7.47059 206.194 7.88953V11.1344H210.975C211.691 11.1344 212.295 11.3783 212.77 11.8594C213.245 12.3425 213.485 12.9551 213.485 13.6815C213.485 14.3713 213.248 14.9726 212.78 15.4688C212.304 15.9729 211.697 16.2288 210.975 16.2288H206.194V30.2791C206.194 30.9726 206.292 31.8559 206.758 32.1238C207.249 32.4069 207.893 32.5504 208.673 32.5504C209.246 32.5504 209.83 32.4614 210.408 32.2857L210.438 32.2774C210.569 32.2445 210.71 32.2107 210.859 32.1768C211.055 32.1332 211.28 32.1123 211.55 32.1123C212.165 32.1123 212.717 32.3447 213.191 32.8028C213.673 33.2697 213.917 33.8452 213.917 34.5135C213.917 35.2037 213.666 36.1591 212.47 36.7925L212.442 36.8064C211.116 37.4273 209.687 37.7423 208.193 37.7423Z" fill="#F7F3EF"/>
<path d="M226.179 37.7423C221.18 37.7423 218.537 35.2962 218.537 30.6684V16.2288H215.771C215.345 16.2288 214.965 16.0701 214.67 15.77C214.376 15.4731 214.22 15.0868 214.22 14.6549C214.22 14.2952 214.333 13.7781 214.868 13.3402L221.367 6.89016C221.773 6.47832 222.199 6.26711 222.63 6.26711C223.065 6.26711 223.452 6.44066 223.749 6.76914C224.032 7.08354 224.181 7.47059 224.181 7.88953V11.1344H228.961C229.677 11.1344 230.281 11.3783 230.756 11.8594C231.231 12.3425 231.472 12.9551 231.472 13.6815C231.472 14.3713 231.234 14.9726 230.766 15.4688C230.291 15.9729 229.683 16.2288 228.961 16.2288H224.181V30.2791C224.181 30.9726 224.278 31.8559 224.744 32.1238C225.236 32.4069 225.88 32.5504 226.659 32.5504C227.233 32.5504 227.817 32.4614 228.394 32.2857L228.424 32.2774C228.556 32.2445 228.697 32.2107 228.846 32.1768C229.042 32.1332 229.267 32.1123 229.537 32.1123C230.152 32.1123 230.704 32.3447 231.177 32.8028C231.659 33.2697 231.903 33.8452 231.903 34.5135C231.903 35.2037 231.652 36.1591 230.456 36.7925L230.429 36.8064C229.103 37.4273 227.673 37.7423 226.179 37.7423Z" fill="#F7F3EF"/>
</svg>
