<svg width="120" height="20" viewBox="0 0 120 20" fill="none" xmlns="http://www.w3.org/2000/svg">
<path d="M11.8809 11.7547C11.8809 9.90916 12.7656 8.82225 14.4592 8.82225C16.0519 8.82225 16.5826 9.95989 16.5826 11.426V19.2875H20.1722V11.0216C20.1722 7.93751 18.5544 5.73828 15.3693 5.73828C13.4733 5.73828 12.1337 6.3197 10.9708 7.60888C10.2126 6.44608 8.92331 5.73828 7.12853 5.73828C5.23264 5.73828 3.91817 6.52192 3.31148 7.65945V6.04163H0V19.2875H3.58954V11.6789C3.58954 9.90916 4.49956 8.82225 6.16794 8.82225C7.7605 8.82225 8.29133 9.95989 8.29133 11.426V19.2875H11.8809V11.7547Z" fill="#58466D"/>
<path d="M35.6642 13.7011C35.6642 13.7011 35.7146 13.2208 35.7146 12.6394C35.7146 8.72115 33.0605 5.73828 29.1423 5.73828C25.2241 5.73828 22.4941 8.72115 22.4941 12.6394C22.4941 16.7092 25.2495 19.5908 29.1677 19.5908C32.2263 19.5908 34.6529 17.7456 35.4367 15.0661H31.8218C31.392 16.0266 30.3556 16.5069 29.2686 16.5069C27.4741 16.5069 26.3112 15.521 26.0584 13.7011H35.6642ZM29.1169 8.62003C30.7855 8.62003 31.8723 9.63117 32.1251 11.1225H26.1088C26.4123 9.60589 27.4741 8.62003 29.1169 8.62003Z" fill="#58466D"/>
<path d="M44.3584 16.1024C44.3584 16.1024 44.0047 16.2289 43.5241 16.2289C42.589 16.2289 42.1845 15.8245 42.1845 14.9395V8.87278H44.3838V6.0416H42.1845V2.75537H38.595V6.0416H36.8002V8.87278H38.595V15.3188C38.595 17.8718 39.7578 19.3633 42.6648 19.3633C43.7519 19.3633 44.3584 19.2117 44.3584 19.2117V16.1024Z" fill="#58466D"/>
<path d="M52.4284 19.5908C56.6752 19.5908 59.3798 16.431 59.3798 12.6645C59.3798 8.8981 56.6752 5.73828 52.4284 5.73828C48.1815 5.73828 45.4767 8.8981 45.4767 12.6645C45.4767 16.431 48.1815 19.5908 52.4284 19.5908ZM49.0663 12.6645C49.0663 10.2885 50.5324 8.8981 52.4284 8.8981C54.3243 8.8981 55.7905 10.2885 55.7905 12.6645C55.7905 15.0407 54.3243 16.431 52.4284 16.431C50.5324 16.431 49.0663 15.0407 49.0663 12.6645Z" fill="#58466D"/>
<path d="M73.7192 11.7547C73.7192 9.90916 74.6042 8.82225 76.2978 8.82225C77.8903 8.82225 78.4213 9.95989 78.4213 11.426V19.2875H82.0108V11.0216C82.0108 7.93751 80.393 5.73828 77.2079 5.73828C75.3119 5.73828 73.9721 6.3197 72.8094 7.60888C72.051 6.44608 70.7618 5.73828 68.9671 5.73828C67.0711 5.73828 65.7566 6.52192 65.15 7.65945V6.04163H61.8384V19.2875H65.4279V11.6789C65.4279 9.90916 66.338 8.82225 68.0065 8.82225C69.599 8.82225 70.1299 9.95989 70.1299 11.426V19.2875H73.7192V11.7547Z" fill="#58466D"/>
<path d="M86.9616 4.32262C88.2254 4.32262 89.1355 3.43788 89.1355 2.17395C89.1355 0.910019 88.2254 0 86.9616 0C85.6975 0 84.7877 0.910019 84.7877 2.17395C84.7877 3.43788 85.6975 4.32262 86.9616 4.32262ZM85.1668 19.2875H88.7564V6.04157H85.1668V19.2875Z" fill="#58466D"/>
<path d="M91.22 12.6645C91.22 16.608 94.0257 19.5908 97.8681 19.5908C101.989 19.5908 103.935 16.6839 104.188 14.4342H100.497C100.219 15.5717 99.1573 16.4057 97.8428 16.4057C95.9217 16.4057 94.8095 14.8891 94.8095 12.6645C94.8095 10.4402 95.9217 8.92338 97.8428 8.92338C99.1573 8.92338 100.219 9.75753 100.497 10.8951H104.188C103.935 8.64531 101.989 5.73828 97.8681 5.73828C94.0257 5.73828 91.22 8.72116 91.22 12.6645Z" fill="#58466D"/>
<path d="M120 15.7703H107.361V19.1575H120V15.7703Z" fill="#58466D"/>
</svg>
